<svg width="24" height="24" viewBox="0 0 24 24" fill="none" xmlns="http://www.w3.org/2000/svg">
<path d="M6 9C6 5.68629 8.68629 3 12 3C15.3137 3 18 5.68629 18 9V13.1782C18 13.7141 18.1586 14.2379 18.4558 14.6838L19.8321 16.7481C19.9416 16.9123 20 17.1054 20 17.3028V18H4V17.3028C4 17.1054 4.05844 16.9123 4.16795 16.7481L5.54415 14.6838C5.84139 14.2379 6 13.7141 6 13.1782V9Z" fill="#1C1D20"/>
<path d="M12 21.5C13.1046 21.5 14 20.6046 14 19.5H10C10 20.6046 10.8954 21.5 12 21.5Z" fill="#1C1D20"/>
</svg>
