<svg width="713" height="713" viewBox="0 0 713 713" fill="none" xmlns="http://www.w3.org/2000/svg">
<path d="M146.806 243.568C125.395 219.419 95.6583 158.556 94.8967 128.459C93.5969 77.0894 135.803 34.1576 186.792 33.0321C241.235 28.1627 293.214 75.8615 290.663 131.074C289.165 163.54 265.453 206.096 249.056 232.898C247.017 236.23 244.735 239.579 243.114 243.137L242.92 243.568C250.865 244.115 259.244 243.584 267.233 243.581L318.175 243.568V33.0321C325.533 33.4507 333.147 33.0494 340.536 33.0466L386.166 33.0321V75.7918C415.469 75.7916 444.847 76.2572 474.14 75.7918C478.363 78.6489 499.523 100.616 499.827 104.613C500.55 114.142 482.936 132.719 475.826 141.219H386.166C385.76 155.726 386.155 170.35 386.166 184.87H562.287V243.568L589.686 243.473C603.354 243.382 614.092 245.869 624.031 255.772C639.735 271.42 636.275 288.271 636.238 308.633L636.244 365.659H682.757C681.418 379.337 681.727 393.125 681.724 406.847L681.733 460.687V549.745H636.244L636.261 590.583C636.263 616.369 637.436 639.014 617.763 658.78C602.908 673.706 587.129 676.513 566.947 676.612L154.287 676.623C146.853 676.622 139.323 676.839 131.966 675.612C105.561 671.207 85.2849 649.652 80.9552 623.559C78.6909 609.913 79.7428 592.443 79.7524 578.434L79.7501 243.568H146.806ZM188.898 98.9822C152.397 104.257 160.38 157.467 197.743 153.477C235.914 145.875 223.422 94.6998 188.898 98.9822ZM494.829 310.867H146.806L146.811 567.094C146.811 578.327 146.158 589.913 147.261 601.081C148.642 615.075 168.892 611.186 179.02 611.186L358.415 611.176L542.831 611.157C568.573 611.024 567.686 612.367 567.676 584.297L567.662 549.745C551.461 550.002 500.663 551.869 486.702 548.91C474.311 546.282 466.881 528.843 460.434 519.507L445.532 498.288C423.886 467.469 426.309 459.056 447.621 425.545C455.819 412.654 464.478 400.258 473.162 387.699C490.955 361.971 489.679 364.893 523.533 364.9L567.662 364.922V310.867C559.826 310.356 551.787 310.862 543.919 310.868L494.829 310.867ZM522.149 432.501C515.797 442.249 509.241 451.248 502.951 460.687C509.178 467.424 514.48 475.525 519.059 483.467H593.761H612.091V432.501H522.149Z" fill="white"/>
</svg>
